:SAMPLES-PER-SECOND 30
:FULLY-SPECIFIED
:DEGREES
41
root  35.08294173 36.52065307 -14.76576047 10.16355133 1.395581484 3.116924286
lowerback  -9.074319839 0.7619360685 1.698809862
upperback  -3.738280058 0.5690739751 -2.558089972
thorax  1.256189942 0.1037139967 -3.551290035
lowerneck  -16.73480034 1.60213995 1.80302
upperneck  13.77779961 0.9245629907 3.93776989
head  6.960939884 0.8530089855 1.080899954
lclavicle  0 -4.497500157e-015 -2.743230041e-014
lhumerus  -42.9137001 24.94689941 72.11940002
lradius  -0.06234936789 -6.507048965e-006 28.19140053
lwrist  4.824992743e-007 -3.790274832e-007 -28.85630035
lhand  -4.412335987e-031 -36.84270096 -10.63549995
lfingers  90 7.125020027 -90
lthumb  94.78081743 -25.47403652 101.0040854
rclavicle  0 -4.497500157e-015 -2.743230041e-014
rhumerus  -21.39380074 -8.062878609 -76.22730255
rradius  -5.16745672e-007 2.214343908e-008 74.78359985
rwrist  1.380293725e-006 2.528095422e-007 -167.4069977
rhand  -1.766249467e-031 -1.598039985 -7.569210052
rfingers  -90 -7.125020027 -90
rthumb  -86.33931579 -8.13857684 -65.68058208
rfemur  -13.32832432 14.6213274 13.36698723
rtibia  -1.044645667 0.7299880385 21.2445507
rfoot  -0.7396678925 -18.75576401 -39.96037674
rtoes  4.073734759 19.59737654 -101.9880475
lfemur  -10.87191677 -17.1531086 -18.60035324
ltibia  1.799576879 1.328402996 15.88372135
lfoot  0.5386051536 -28.60902977 33.40019226
ltoes  -8.707871356 -18.07509611 -116.2733463
42
root  35.08368364 36.52369882 -14.76195628 10.16505718 1.483360171 3.087206125
lowerback  -9.160989761 0.7756690383 1.640550017
upperback  -3.710479975 0.592335999 -2.597460032
thorax  1.334149957 0.1166730002 -3.556900024
lowerneck  -16.78700066 1.553339958 1.782699943
upperneck  13.74709988 0.8453900218 4.026549816
head  6.96062994 0.8212469816 1.104769945
lclavicle  0 -4.497500157e-015 -2.743230041e-014
lhumerus  -42.75460052 25.37339973 71.87220001
lradius  -0.06302571297 -6.507048965e-006 27.86909866
lwrist  4.824992743e-007 -3.790274832e-007 -29.2996006
lhand  -0 -36.85350037 -10.57610035
lfingers  90 7.125020027 -90
lthumb  94.7733277 -25.41534925 101.0102886
rclavicle  0 -4.497500157e-015 -2.743230041e-014
rhumerus  -20.06399918 -7.354068756 -76.16850281
rradius  -5.16745672e-007 2.214343908e-008 75.84729767
rwrist  1.380293725e-006 2.528095422e-007 -168.352005
rhand  -1.766041585e-031 -1.334579945 -7.696380138
rfingers  -90 -7.125020027 -90
rthumb  -86.34257148 -8.037338264 -65.4314627
rfemur  -13.29970551 14.64591789 13.40824604
rtibia  -1.043269992 0.7954044342 21.20757866
rfoot  -0.710142374 -18.63231087 -39.99118423
rtoes  4.073841443 19.5973552 -101.9883656
lfemur  -10.92331696 -17.18629837 -18.53719711
ltibia  1.747680902 1.311122417 15.95539284
lfoot  0.487000823 -28.59423256 33.28128052
ltoes  -8.671396243 -18.09216851 -116.1558381
43
root  35.08443757 36.52673556 -14.75877537 10.18623924 1.543358922 3.082107067
lowerback  -9.202899933 0.7915459871 1.615300775
upperback  -3.690419912 0.6167169809 -2.615210056
thorax  1.379680037 0.1300700009 -3.558549881
lowerneck  -16.79369926 1.495519996 1.730949998
upperneck  13.68430042 0.7699339986 4.093410015
head  6.941939831 0.7871590257 1.126240015
lclavicle  0 -4.497500157e-015 -2.743230041e-014
lhumerus  -42.64450073 25.54369926 71.79789734
lradius  -0.06369996071 -6.507048965e-006 27.73080063
lwrist  4.824992743e-007 -3.790274832e-007 -29.42759895
lhand  -4.416428369e-031 -36.91350174 -10.64080048
lfingers  90 7.125020027 -90
lthumb  94.81512915 -25.47685724 101.0803591
rclavicle  0 -4.497500157e-015 -2.743230041e-014
rhumerus  -18.68479919 -6.60461092 -76.05470276
rradius  -5.16745672e-007 2.214343908e-008 77.01779938
rwrist  1.380293725e-006 2.528095422e-007 -168.7810059
rhand  -1.766369707e-031 -1.73221004 -7.660349846
rfingers  -90 -7.125020027 -90
rthumb  -86.40242885 -8.048162015 -65.8166305
rfemur  -13.29789066 14.62634754 13.41835403
rtibia  -1.042391539 0.8228065968 21.18473244
rfoot  -0.6927542686 -18.56000328 -40.00006485
rtoes  4.07824485 19.59647383 -102.0014944
lfemur  -10.99171162 -17.18383789 -18.50437927
ltibia  1.712338448 1.296382189 16.00996208
lfoot  0.4416555166 -28.57793617 33.15686798
ltoes  -8.647908829 -18.10311436 -116.0802277
44
root  35.08240707 36.52735132 -14.75403102 10.21622372 1.600504279 3.068857431
lowerback  -9.195859909 0.8139420152 1.60975945
upperback  -3.689290047 0.6472250223 -2.642339945
thorax  1.37943995 0.145025 -3.580549955
lowerneck  -16.82649994 1.440000057 1.707859993
upperneck  13.6892004 0.6886180043 4.144390106
head  6.950129986 0.7512879968 1.13816011
lclavicle  0 -4.497500157e-015 -2.743230041e-014
lhumerus  -42.64440155 25.58090019 71.77330017
lradius  -0.06437208503 -6.507048965e-006 27.76810074
lwrist  4.824992743e-007 -3.790274832e-007 -29.42060089
lhand  -4.414247436e-031 -36.87580109 -10.71479988
lfingers  90 7.125020027 -90
lthumb  94.81315021 -25.55077254 101.0467355
rclavicle  0 -4.497500157e-015 -2.743230041e-014
rhumerus  -17.31209946 -5.710091114 -75.81459808
rradius  -5.16745672e-007 2.214343908e-008 78.18969727
rwrist  1.380293725e-006 2.528095422e-007 -169.1100006
rhand  -1.766566893e-031 -1.932150006 -7.462729931
rfingers  -90 -7.125020027 -90
rthumb  -86.3585988 -8.217829364 -65.99982341
rfemur  -13.30383778 14.6472044 13.43707561
rtibia  -1.042225122 0.8471577168 21.15712547
rfoot  -0.694060564 -18.50871086 -40.07216263
rtoes  4.064607469 19.59920021 -101.9608363
lfemur  -11.03610611 -17.19536591 -18.46523285
ltibia  1.704023957 1.311467171 16.02749443
lfoot  0.4313976169 -28.59953308 33.10412216
ltoes  -8.649330317 -18.10245296 -116.0848025
45
root  35.08033152 36.52631805 -14.74979881 10.24114513 1.668955564 3.084723949
lowerback  -9.176560402 0.8435080647 1.627529979
upperback  -3.70291996 0.6841840148 -2.667429924
thorax  1.357910037 0.1621830016 -3.613019943
lowerneck  -16.7371006 1.375589967 1.795349956
upperneck  13.54399967 0.6053500175 4.061570168
head  6.8895998 0.7056419849 1.085909963
lclavicle  0 -4.497500157e-015 -2.743230041e-014
lhumerus  -42.63619995 25.56669998 71.75730133
lradius  -0.0650420934 -6.507048965e-006 27.79100037
lwrist  4.824992743e-007 -3.790274832e-007 -29.47369957
lhand  -4.413496317e-031 -36.8628006 -10.70259953
lfingers  90 7.125020027 -90
lthumb  94.80449005 -25.53925537 101.0317809
rclavicle  0 -4.497500157e-015 -2.743230041e-014
rhumerus  -16.02000046 -5.097999573 -75.54260254
rradius  -5.16745672e-007 2.214343908e-008 79.44249725
rwrist  1.380293725e-006 2.528095422e-007 -168.9309998
rhand  -1.766219276e-031 -1.562540054 -7.768740177
rfingers  -90 -7.125020027 -90
rthumb  -86.41565794 -7.958748594 -65.6576747
rfemur  -13.31468391 14.61609745 13.43435097
rtibia  -1.042985916 0.8278369308 21.16644096
rfoot  -0.7157958746 -18.54196167 -40.11764908
rtoes  4.072811509 19.59756121 -101.9852949
lfemur  -11.0252943 -17.18284988 -18.4834137
ltibia  1.75221622 1.357853651 15.96367359
lfoot  0.4469335973 -28.65954971 33.07424164
ltoes  -8.689767829 -18.08358083 -116.2150106
46
root  35.07964968 36.52302299 -14.74543444 10.25777912 1.757687688 3.086811781
lowerback  -9.166660309 0.8566190004 1.61108017
upperback  -3.725589991 0.7005169988 -2.685790062
thorax  1.330219984 0.1685550064 -3.621200085
lowerneck  -16.66390038 1.325189948 1.845749974
upperneck  13.44390011 0.5386459827 4.024040222
head  6.845950127 0.6705129743 1.05685997
lclavicle  0 -4.497500157e-015 -2.743230041e-014
lhumerus  -42.60910034 25.51510048 71.771698
lradius  -0.06570997834 -6.507048965e-006 27.76920128
lwrist  4.824992743e-007 -3.790274832e-007 -29.42289925
lhand  -4.411822586e-031 -36.83380127 -10.68150043
lfingers  90 7.125020027 -90
lthumb  94.78643495 -25.51960645 100.9988485
rclavicle  0 -4.497500157e-015 -2.743230041e-014
rhumerus  -14.68260002 -4.477539539 -75.27349854
rradius  -5.16745672e-007 2.214343908e-008 80.57050323
rwrist  1.380293725e-006 2.528095422e-007 -169.0820007
rhand  -3.532520727e-031 -1.610659957 -7.88409996
rfingers  -90 -7.125020027 -90
rthumb  -86.47255464 -7.850887586 -65.71107238
rfemur  -13.30206394 14.5742054 13.4395895
rtibia  -1.046241403 0.8204185963 21.1456871
rfoot  -0.7292966843 -18.55086708 -40.17964935
rtoes  4.060096623 19.60009991 -101.947389
lfemur  -10.98962688 -17.19763374 -18.49416924
ltibia  1.804867029 1.40082109 15.89213276
lfoot  0.4748139679 -28.7062397 33.08375549
ltoes  -8.686120437 -18.0852876 -116.2032606
